<?xml version="1.0" encoding="utf-8"?>
<!-- Generator: Adobe Illustrator 25.4.1, SVG Export Plug-In . SVG Version: 6.00 Build 0)  -->
<svg version="1.1" id="Calque_1" xmlns="http://www.w3.org/2000/svg" xmlns:xlink="http://www.w3.org/1999/xlink" x="0px" y="0px"
	 viewBox="0 0 57.2 57.7" style="enable-background:new 0 0 57.2 57.7;" xml:space="preserve">
<style type="text/css">
	.st0{fill:#FF0101;}
	.st1{fill:#020203;}
	.st2{display:none;fill:#020203;}
</style>
<path class="st0" d="M28.6,57.7c15.8,0,28.6-12.9,28.6-28.9C57.2,12.9,44.4,0,28.6,0C12.8,0,0,12.9,0,28.9
	C0,44.8,12.8,57.7,28.6,57.7z"/>
<path class="st1" d="M40.9,16.4c2.6,0,4.8-2.2,4.8-4.8c0-2.7-2.1-4.8-4.8-4.8s-4.8,2.2-4.8,4.8C36.1,14.3,38.3,16.4,40.9,16.4z"/>
<path class="st2" d="M39.5,29.4c0.3,0.5,0.9,0.8,1.5,0.8c0.3,0,0.6-0.1,0.9-0.3l8.6-5.2c0.9-0.5,1.1-1.6,0.6-2.5
	c-0.5-0.9-1.6-1.1-2.5-0.6L41.6,26l-3.5-6.8c-0.9-1-2-1.9-3.1-2.7l-10.2-5.2c-0.7-0.3-1.4-0.3-2,0.3l-8.5,7.8
	c-0.8,0.7-0.8,1.8-0.1,2.5c0.7,0.8,1.8,0.8,2.5,0.1l7.7-7l5.3,2.7l-9.2,14.3l-20.9,25c-0.8,1-0.8,2.5,0.3,3.3
	c0.9,0.8,2.5,0.8,3.3-0.3l20.3-23.7l8.7,2l-6,9.4c-0.6,1.1-0.3,2.5,0.9,3.2c1,0.6,2.3,0.3,3-0.7l7.7-12.2c0.4-0.6,0.5-1.5,0.3-2.2
	c-0.3-0.7-0.9-1.2-1.6-1.3l-6.7-1.6l6.1-9.6L39.5,29.4z"/>
<path class="st1" d="M51.2,22.3c-0.5-0.9-1.6-1.1-2.5-0.6L41.6,26l-3.5-6.8c-0.9-1-2-1.9-3.1-2.7l-10.2-5.2c-0.7-0.3-1.4-0.3-2,0.3
	l-8.5,7.8c-0.8,0.7-0.8,1.8-0.1,2.5c0.7,0.8,1.8,0.8,2.5,0.1l7.7-7l5.3,2.7l-9.2,14.3L7.2,48c1.1,1.2,2.2,2.3,3.5,3.3l12.8-14.9
	l8.7,2l-6,9.4c-0.6,1.1-0.3,2.5,0.9,3.2c1,0.6,2.3,0.3,3-0.7l7.7-12.2c0.4-0.6,0.5-1.5,0.3-2.2c-0.3-0.7-0.9-1.2-1.6-1.3l-6.7-1.6
	l6.1-9.6l3.8,6c0.3,0.5,0.9,0.8,1.5,0.8c0.3,0,0.6-0.1,0.9-0.3l8.6-5.2C51.5,24.3,51.7,23.1,51.2,22.3z"/>
</svg>
